<?xml version="1.0" standalone="no"?>
<!DOCTYPE svg PUBLIC "-//W3C//DTD SVG 20010904//EN"
 "http://www.w3.org/TR/2001/REC-SVG-20010904/DTD/svg10.dtd">
<svg version="1.0" xmlns="http://www.w3.org/2000/svg"
 width="725.000000pt" height="296.000000pt" viewBox="0 0 725.000000 296.000000"
 preserveAspectRatio="xMidYMid meet">

<g transform="translate(0.000000,296.000000) scale(0.100000,-0.100000)"
fill="#000000" stroke="none">
<path d="M32 2938 c-9 -9 -12 -247 -12 -1008 0 -1097 -2 -1051 63 -1174 46
-87 156 -195 238 -234 124 -59 150 -62 632 -62 l439 0 76 -62 c42 -34 145
-119 228 -189 218 -183 240 -199 279 -199 18 0 43 9 56 19 24 19 24 24 29 226
l5 207 54 19 c133 47 253 153 315 281 69 141 66 88 66 1170 0 965 0 978 -20
998 -18 18 -33 20 -179 20 -435 0 -777 -87 -980 -250 l-62 -51 -72 55 c-216
165 -538 246 -975 246 -117 0 -172 -4 -180 -12z m473 -164 c272 -32 470 -101
589 -205 81 -71 76 -22 76 -798 0 -380 -2 -691 -5 -691 -2 0 -33 15 -67 34
-188 101 -436 156 -775 172 l-143 6 0 753 0 752 98 -4 c53 -2 155 -11 227 -19z
m1825 -728 l0 -753 -137 -7 c-331 -17 -618 -81 -789 -177 -28 -16 -54 -29 -58
-29 -3 0 -6 313 -6 695 0 592 2 700 15 724 43 85 221 187 404 232 107 26 337
55 496 62 39 2 71 4 73 5 1 1 2 -337 2 -752z m-1879 -926 c313 -31 557 -111
713 -234 77 -60 115 -62 178 -10 173 146 460 229 857 250 l133 7 -4 -105 c-3
-97 -6 -111 -40 -179 -20 -41 -56 -94 -80 -118 -49 -50 -148 -101 -211 -108
-105 -11 -107 -14 -107 -213 l0 -150 -166 141 c-92 77 -189 158 -216 180 l-50
39 -456 0 c-356 0 -468 3 -509 14 -194 52 -313 214 -313 428 l0 68 84 0 c46 0
130 -5 187 -10z"/>
<path d="M3200 2021 l0 -511 238 0 c131 0 265 5 297 11 174 32 266 143 252
302 -8 85 -46 143 -120 181 l-57 29 50 34 c73 49 103 107 104 197 0 117 -53
190 -171 237 -54 22 -75 23 -325 27 l-268 4 0 -511z m481 339 c57 -16 84 -52
83 -113 -1 -110 -65 -147 -253 -147 l-121 0 0 135 0 135 128 0 c70 0 143 -5
163 -10z m26 -420 c83 -37 111 -145 56 -211 -43 -51 -76 -59 -233 -59 l-140 0
0 145 0 145 138 0 c113 0 144 -4 179 -20z"/>
<path d="M4130 2020 l0 -510 95 0 95 0 0 510 0 510 -95 0 -95 0 0 -510z"/>
<path d="M5300 2020 l0 -510 248 0 c271 0 342 8 415 48 65 35 103 81 123 149
39 134 -18 262 -138 310 l-39 16 43 24 c169 95 155 345 -24 432 -71 34 -138
41 -389 41 l-239 0 0 -510z m495 336 c97 -41 96 -186 -1 -236 -20 -10 -70 -16
-161 -18 l-133 -4 0 136 0 136 130 0 c91 0 141 -4 165 -14z m31 -422 c50 -37
69 -72 69 -124 0 -57 -24 -96 -76 -122 -28 -15 -61 -18 -176 -18 l-143 0 0
146 0 146 149 -4 c132 -3 153 -5 177 -24z"/>
<path d="M6230 2528 c0 -2 -1 -231 -3 -511 l-2 -507 98 0 97 0 0 510 0 510
-95 0 c-52 0 -95 -1 -95 -2z"/>
<path d="M4688 2266 c-97 -28 -158 -85 -184 -172 -8 -26 -13 -49 -11 -50 1 -1
43 -4 92 -5 84 -2 90 -1 93 18 2 11 14 31 28 44 36 33 135 39 182 9 36 -22 62
-72 62 -120 l0 -30 -112 0 c-185 0 -277 -34 -335 -121 -49 -74 -45 -203 9
-265 54 -61 100 -79 203 -79 81 0 95 3 143 30 30 16 62 40 73 53 l19 25 0 -47
0 -46 96 0 96 0 -4 283 c-3 217 -7 289 -18 312 -30 62 -71 104 -136 136 -55
27 -77 32 -157 35 -57 2 -110 -2 -139 -10z m262 -475 c0 -62 -30 -108 -90
-139 -72 -37 -164 -20 -189 35 -15 34 -14 60 6 94 25 42 74 58 181 58 l92 1 0
-49z"/>
<path d="M6792 2265 c-100 -28 -174 -102 -196 -197 l-6 -28 94 0 c92 0 94 0
100 25 15 60 136 86 204 45 36 -22 62 -72 62 -119 l0 -29 -137 -5 c-157 -5
-195 -14 -255 -60 -59 -45 -80 -86 -86 -166 -6 -82 18 -145 70 -184 105 -80
277 -75 368 12 l40 38 0 -44 0 -43 96 0 96 0 -4 278 c-3 238 -6 283 -21 316
-31 71 -67 107 -136 139 -54 26 -80 32 -151 34 -53 2 -105 -3 -138 -12z m258
-471 c0 -94 -54 -151 -152 -161 -44 -4 -59 -1 -87 19 -56 37 -63 104 -16 148
32 30 67 38 168 39 l87 1 0 -46z"/>
<path d="M3200 835 l0 -515 245 0 c142 0 266 5 297 11 105 23 190 84 222 161
22 52 21 172 -3 223 -21 48 -76 98 -125 116 -20 7 -36 16 -36 19 0 3 16 14 36
25 168 90 159 339 -16 428 -73 36 -159 46 -412 47 l-208 0 0 -515z m490 333
c53 -27 75 -77 64 -142 -14 -85 -84 -116 -258 -116 l-106 0 0 140 0 140 128 0
c113 0 133 -3 172 -22z m18 -418 c33 -15 47 -29 62 -62 25 -55 25 -72 -1 -126
-34 -69 -72 -82 -241 -82 l-138 0 0 145 0 145 138 0 c114 0 144 -4 180 -20z"/>
<path d="M5810 835 l0 -515 98 0 97 0 -3 114 -4 115 39 41 38 41 110 -156 109
-155 118 0 118 0 -123 167 c-68 93 -138 189 -156 215 l-33 46 123 139 c67 76
134 150 148 166 l25 27 -115 0 -114 -1 -140 -162 -140 -162 -3 298 -2 297 -95
0 -95 0 0 -515z"/>
<path d="M4372 1080 c-106 -22 -212 -114 -254 -218 -18 -47 -22 -77 -23 -172
0 -106 2 -120 29 -177 33 -73 103 -144 174 -176 40 -19 65 -22 167 -22 109 0
125 2 175 26 73 35 126 89 164 169 29 61 31 72 31 180 -1 97 -4 124 -25 175
-32 82 -114 164 -193 194 -67 24 -181 34 -245 21z m192 -184 c41 -31 64 -79
77 -158 31 -193 -104 -332 -251 -256 -62 32 -92 88 -98 184 -8 124 30 218 102
250 46 21 129 11 170 -20z"/>
<path d="M5220 1076 c-78 -17 -131 -48 -183 -106 -71 -79 -91 -141 -92 -285 0
-116 1 -123 33 -187 58 -118 155 -179 301 -186 215 -12 360 88 400 276 66 314
-160 555 -459 488z m170 -166 c61 -31 93 -94 98 -194 7 -137 -26 -208 -113
-242 -86 -32 -178 6 -216 90 -21 47 -26 176 -9 238 30 107 143 157 240 108z"/>
</g>
</svg>
