<?xml version="1.0" standalone="no"?>
<!DOCTYPE svg PUBLIC "-//W3C//DTD SVG 20010904//EN"
 "http://www.w3.org/TR/2001/REC-SVG-20010904/DTD/svg10.dtd">
<svg version="1.0" xmlns="http://www.w3.org/2000/svg"
 width="1024.000000pt" height="1024.000000pt" viewBox="0 0 1024.000000 1024.000000"
 preserveAspectRatio="xMidYMid meet">

<g transform="translate(0.000000,1024.000000) scale(0.100000,-0.100000)"
fill="#000000" stroke="none">
<path d="M1156 6687 l-26 -26 0 -943 c0 -1043 -3 -996 65 -1133 62 -128 178
-231 318 -283 94 -35 215 -43 624 -40 336 2 383 1 400 -13 10 -9 108 -92 217
-185 373 -317 361 -309 429 -280 63 26 67 46 67 306 l0 230 94 93 c77 76 101
107 135 177 73 149 72 128 69 1157 l-3 912 -22 22 c-29 29 -121 35 -309 19
-334 -28 -615 -119 -823 -268 -73 -53 -74 -53 -95 -34 -39 36 -167 114 -249
152 -204 93 -431 142 -719 156 l-146 7 -26 -26z m400 -212 c257 -39 485 -133
619 -256 l45 -42 0 -653 c0 -360 -2 -654 -5 -654 -3 0 -27 14 -55 31 -166 102
-427 172 -692 186 l-128 6 0 699 0 698 56 0 c31 0 103 -7 160 -15z m1774 -683
l0 -699 -162 -6 c-280 -11 -499 -71 -675 -183 -28 -18 -54 -30 -57 -27 -3 4
-6 298 -6 654 l0 647 62 56 c34 30 105 77 157 104 147 76 250 106 511 145 14
3 58 5 98 6 l72 1 0 -698z m-1641 -937 c169 -34 359 -116 477 -207 87 -66 125
-88 159 -88 33 0 43 6 153 87 132 98 290 170 459 208 37 9 141 19 231 22 l162
6 0 -40 c0 -130 -90 -279 -209 -346 -74 -42 -81 -63 -81 -243 0 -82 -4 -144
-9 -142 -5 2 -35 26 -67 53 -231 201 -314 269 -346 286 -35 18 -62 19 -455 19
-454 1 -528 7 -619 53 -106 54 -185 174 -200 304 l-7 56 139 -6 c76 -4 172
-13 213 -22z"/>
<path d="M4310 5805 l0 -546 298 3 c284 3 300 4 357 27 243 95 263 422 32 517
-52 21 -57 29 -26 39 35 11 111 87 130 130 21 45 24 130 8 188 -15 57 -91 129
-164 158 -57 22 -73 24 -347 27 l-288 3 0 -546z m500 342 c41 -14 80 -68 80
-111 0 -17 -9 -45 -19 -62 -31 -51 -79 -67 -218 -72 l-123 -5 0 132 0 131 123
-1 c67 0 138 -5 157 -12z m43 -430 c92 -60 88 -200 -7 -249 -35 -18 -59 -21
-176 -22 l-135 -1 -3 148 -3 149 149 -4 c122 -2 153 -6 175 -21z"/>
<path d="M5280 5805 l0 -545 110 0 110 0 0 545 0 545 -110 0 -110 0 0 -545z"/>
<path d="M6540 5805 l0 -547 298 4 c284 4 300 5 354 27 123 50 190 145 190
269 1 123 -62 217 -168 252 -19 6 -34 15 -34 18 1 4 24 21 53 37 35 20 61 46
82 79 26 44 30 58 30 125 0 129 -55 206 -182 254 -53 20 -80 22 -340 25 l-283
3 0 -546z m493 341 c53 -22 72 -51 72 -111 0 -96 -50 -125 -227 -133 l-118 -5
0 132 0 131 120 0 c79 0 132 -5 153 -14z m45 -429 c69 -38 90 -149 39 -213
-34 -44 -80 -57 -224 -62 l-133 -5 0 153 0 152 143 -4 c113 -3 149 -7 175 -21z"/>
<path d="M7510 5983 c0 -203 -1 -448 -3 -546 l-2 -177 113 0 112 0 0 545 0
545 -110 0 -110 0 0 -367z"/>
<path d="M5880 6075 c-116 -33 -197 -118 -203 -212 l-2 -37 85 -12 c47 -7 90
-13 97 -13 6 -1 17 15 23 34 18 56 62 85 126 85 91 0 122 -27 138 -117 7 -45
-8 -51 -156 -63 -174 -15 -246 -38 -297 -96 -86 -98 -75 -250 26 -333 51 -42
113 -61 202 -61 86 0 135 18 193 69 20 17 38 31 42 31 3 0 6 -20 6 -45 l0 -45
101 0 100 0 -3 313 -3 312 -30 55 c-32 59 -96 110 -163 131 -63 19 -220 21
-282 4z m270 -490 c0 -78 -53 -144 -133 -166 -86 -23 -157 15 -157 85 0 61 46
88 175 105 119 15 115 16 115 -24z"/>
<path d="M8103 6076 c-102 -26 -175 -95 -199 -188 -8 -28 -12 -54 -9 -58 2 -4
33 -10 67 -13 35 -4 79 -9 98 -13 35 -6 36 -5 45 32 14 53 61 84 129 84 28 0
62 -6 76 -13 30 -15 60 -71 60 -113 0 -39 -3 -40 -171 -54 -153 -14 -218 -31
-265 -72 -53 -47 -75 -98 -75 -175 0 -87 29 -146 95 -190 58 -40 103 -53 179
-53 84 0 137 16 195 60 l51 39 3 -42 3 -42 98 -3 98 -3 -3 308 c-3 292 -4 310
-25 355 -28 62 -84 113 -153 139 -69 27 -221 35 -297 15z m266 -505 c-9 -61
-20 -82 -59 -115 -64 -53 -166 -59 -207 -11 -32 36 -30 80 5 115 28 27 31 28
192 53 14 3 37 5 51 6 26 1 26 0 18 -48z"/>
<path d="M4310 4509 l0 -541 293 4 c324 5 350 9 439 73 87 64 131 179 108 288
-17 83 -55 129 -142 171 l-73 35 37 16 c95 39 147 119 148 223 0 73 -15 114
-60 166 -77 88 -162 106 -497 106 l-253 0 0 -541z m505 337 c65 -28 94 -115
59 -176 -32 -54 -66 -65 -211 -68 l-133 -4 0 131 0 131 125 0 c87 0 136 -4
160 -14z m22 -425 c100 -46 112 -178 20 -239 -38 -26 -48 -27 -184 -30 l-143
-4 0 146 0 146 133 0 c108 0 140 -4 174 -19z"/>
<path d="M7060 4510 l0 -540 115 0 115 0 0 133 0 133 31 30 c25 24 32 26 39
14 5 -8 53 -80 107 -160 l98 -145 129 -3 c113 -2 128 -1 122 13 -5 14 -75 115
-252 364 l-53 74 37 42 c20 24 92 104 160 179 l123 136 -133 0 -133 -1 -135
-155 -135 -156 -3 291 -2 291 -115 0 -115 0 0 -540z"/>
<path d="M5503 4776 c-61 -20 -138 -71 -173 -116 -140 -176 -125 -474 31 -614
77 -69 141 -91 274 -91 100 0 116 3 170 28 110 51 162 107 203 219 80 215 -3
460 -186 550 -60 30 -75 33 -172 35 -68 2 -120 -2 -147 -11z m202 -182 c71
-33 109 -126 103 -248 -7 -141 -63 -211 -166 -211 -111 0 -171 70 -180 211
-12 188 109 312 243 248z"/>
<path d="M6393 4771 c-75 -27 -135 -72 -176 -133 -61 -88 -71 -127 -71 -268 0
-162 19 -217 108 -306 74 -74 145 -104 258 -112 180 -11 315 63 389 213 31 63
33 76 37 184 3 98 0 125 -17 176 -43 123 -124 206 -237 245 -77 27 -218 27
-291 1z m228 -184 c71 -47 107 -147 95 -260 -15 -149 -100 -221 -223 -188 -84
23 -129 108 -127 241 1 75 21 138 57 182 41 51 140 64 198 25z"/>
</g>
</svg>
