<?xml version="1.0" encoding="utf-8"?>
<!-- Generated by Mocodo 4.3.2 -->
<svg width="314" height="154" viewBox="0 0 314 154" xmlns="http://www.w3.org/2000/svg">
<rect x="0" y="0" width="314" height="154" fill="#f5f5f5" stroke="none" stroke-width="0"/>

<!-- Association COLLECT -->
<g>
	<line x1="46" y1="77" x2="150" y2="77" stroke="#35978f" stroke-width="2"/>
	<line x1="261" y1="77" x2="150" y2="77" stroke="#35978f" stroke-width="2"/>
	<g>
		<path d="M171 52 a14 14 90 0 1 14 14 V77 h-70 V66 a14 14 90 0 1 14 -14" fill="#80cdc1" stroke="#80cdc1" stroke-width="0"/>
		<path d="M185 77 v11 a14 14 90 0 1 -14 14 H129 a14 14 90 0 1 -14 -14 V77 H70" fill="#c7eae5" stroke="#c7eae5" stroke-width="0"/>
		<rect x="115" y="52" width="70" height="50" fill="none" rx="14" stroke="#35978f" stroke-width="2"/>
		<line x1="115" y1="77" x2="185" y2="77" stroke="#35978f" stroke-width="1"/>
		<text x="122" y="69.75" fill="#000000" font-family="Verdana" font-size="12">COLLECT</text>
		<text x="122" y="94.8" fill="#000000" font-family="Verdana" font-size="12">status</text>
	</g>
	<text x="88" y="94" fill="#8c510a" font-family="Verdana" font-size="12">0,N</text>
	<text x="190" y="94" fill="#8c510a" font-family="Verdana" font-size="12">0,N</text>
</g>

<!-- Entity USER -->
<g>
	<g>
		<rect x="9" y="26" width="74" height="25" fill="#dfc27d" stroke="none" stroke-width="0" opacity="1"/>
		<rect x="9" y="51" width="74" height="77" fill="#f6e8c3" stroke="none" stroke-width="0" opacity="1"/>
		<rect x="9" y="26" width="74" height="102" fill="none" stroke="#bf812d" stroke-width="2" opacity="1"/>
		<line x1="9" y1="51" x2="83" y2="51" stroke="#bf812d" stroke-width="1"/>
	</g>
	<text x="29" y="43.75" fill="#000000" font-family="Verdana" font-size="12">USER</text>
	<text x="14" y="68.8" fill="#000000" font-family="Verdana" font-size="12">code_user</text>
	<line x1="14" y1="71" x2="77" y2="71" stroke="#000000" stroke-width="1"/>
	<text x="14" y="85.8" fill="#000000" font-family="Verdana" font-size="12">email</text>
	<text x="14" y="102.8" fill="#000000" font-family="Verdana" font-size="12">password</text>
	<text x="14" y="119.8" fill="#000000" font-family="Verdana" font-size="12">name</text>
</g>

<!-- Entity BOOK -->
<g>
	<g>
		<rect x="217" y="9" width="88" height="25" fill="#dfc27d" stroke="none" stroke-width="0" opacity="1"/>
		<rect x="217" y="34" width="88" height="111" fill="#f6e8c3" stroke="none" stroke-width="0" opacity="1"/>
		<rect x="217" y="9" width="88" height="136" fill="none" stroke="#bf812d" stroke-width="2" opacity="1"/>
		<line x1="217" y1="34" x2="305" y2="34" stroke="#bf812d" stroke-width="1"/>
	</g>
	<text x="243" y="26.75" fill="#000000" font-family="Verdana" font-size="12">BOOK</text>
	<text x="222" y="51.8" fill="#000000" font-family="Verdana" font-size="12">code_book</text>
	<line x1="222" y1="54" x2="288" y2="54" stroke="#000000" stroke-width="1"/>
	<text x="222" y="68.8" fill="#000000" font-family="Verdana" font-size="12">title</text>
	<text x="222" y="85.8" fill="#000000" font-family="Verdana" font-size="12">cover</text>
	<text x="222" y="102.8" fill="#000000" font-family="Verdana" font-size="12">author</text>
	<text x="222" y="119.8" fill="#000000" font-family="Verdana" font-size="12">description</text>
	<text x="222" y="136.8" fill="#000000" font-family="Verdana" font-size="12">publish_year</text>
</g>
</svg>